<?xml version="1.0" encoding="UTF-8" standalone="no"?>
<!-- Created with Inkscape (http://www.inkscape.org/) -->

<svg
   xmlns:dc="http://purl.org/dc/elements/1.1/"
   xmlns:cc="http://creativecommons.org/ns#"
   xmlns:rdf="http://www.w3.org/1999/02/22-rdf-syntax-ns#"
   xmlns:svg="http://www.w3.org/2000/svg"
   xmlns="http://www.w3.org/2000/svg"
   xmlns:xlink="http://www.w3.org/1999/xlink"
   xmlns:sodipodi="http://sodipodi.sourceforge.net/DTD/sodipodi-0.dtd"
   xmlns:inkscape="http://www.inkscape.org/namespaces/inkscape"
   sodipodi:docname="icon.png"
   height="48"
   width="128"
   inkscape:version="0.47pre4 r22446"
   version="1.1"
   id="svg2"
   inkscape:export-filename="/home/amqs/proyectos/ziip/icon.png"
   inkscape:export-xdpi="90"
   inkscape:export-ydpi="90">
  <sodipodi:namedview
     pagecolor="#ffffff"
     bordercolor="#666666"
     borderopacity="1"
     objecttolerance="10"
     gridtolerance="10"
     guidetolerance="10"
     inkscape:pageopacity="0"
     inkscape:pageshadow="2"
     inkscape:window-width="1280"
     inkscape:window-height="725"
     id="namedview4"
     showgrid="false"
     inkscape:zoom="5.1086957"
     inkscape:cx="109.00661"
     inkscape:cy="19.46178"
     inkscape:window-x="0"
     inkscape:window-y="27"
     inkscape:window-maximized="1"
     inkscape:current-layer="svg2" />
  <metadata
     id="metadata8">
    <rdf:RDF>
      <cc:Work
         rdf:about="">
        <dc:format>image/svg+xml</dc:format>
        <dc:type
           rdf:resource="http://purl.org/dc/dcmitype/StillImage" />
        <dc:title></dc:title>
      </cc:Work>
    </rdf:RDF>
  </metadata>
  <defs
     id="defs6">
    <linearGradient
       id="linearGradient3970">
      <stop
         style="stop-color:#ffffff;stop-opacity:0.39622641;"
         offset="0"
         id="stop3972" />
      <stop
         style="stop-color:#ffffff;stop-opacity:0;"
         offset="1"
         id="stop3974" />
    </linearGradient>
    <linearGradient
       id="linearGradient3957">
      <stop
         style="stop-color:#00712b;stop-opacity:1;"
         offset="0"
         id="stop3959" />
      <stop
         style="stop-color:#cfff43;stop-opacity:1;"
         offset="1"
         id="stop3961" />
    </linearGradient>
    <linearGradient
       id="linearGradient3911">
      <stop
         style="stop-color:#ff3434;stop-opacity:1;"
         offset="0"
         id="stop3913" />
      <stop
         id="stop3927"
         offset="0.07029969"
         style="stop-color:#ffa433;stop-opacity:1;" />
      <stop
         id="stop3925"
         offset="0.25674668"
         style="stop-color:#c5ff33;stop-opacity:1;" />
      <stop
         id="stop3923"
         offset="0.44149789"
         style="stop-color:#bfff33;stop-opacity:1;" />
      <stop
         id="stop3921"
         offset="0.60161561"
         style="stop-color:#32ff63;stop-opacity:1;" />
      <stop
         id="stop3919"
         offset="0.8035714"
         style="stop-color:#30ffcc;stop-opacity:1;" />
      <stop
         style="stop-color:#2d9eff;stop-opacity:1;"
         offset="1"
         id="stop3915" />
    </linearGradient>
    <linearGradient
       id="linearGradient3873">
      <stop
         style="stop-color:#000000;stop-opacity:1;"
         offset="0"
         id="stop3875" />
      <stop
         style="stop-color:#454545;stop-opacity:1;"
         offset="1"
         id="stop3877" />
    </linearGradient>
    <inkscape:perspective
       id="perspective10"
       inkscape:persp3d-origin="0.5 : 0.33333333 : 1"
       inkscape:vp_z="-26.496296 : 49.803703 : 1"
       inkscape:vp_y="0 : 1000 : 0"
       inkscape:vp_x="8.0592593 : 1.6851852 : 1"
       sodipodi:type="inkscape:persp3d" />
    <linearGradient
       inkscape:collect="always"
       xlink:href="#linearGradient3873"
       id="linearGradient3902"
       x1="-103.09185"
       y1="62.093681"
       x2="-100.84673"
       y2="20.1875"
       gradientUnits="userSpaceOnUse" />
    <linearGradient
       inkscape:collect="always"
       xlink:href="#linearGradient3873"
       id="linearGradient4041"
       gradientUnits="userSpaceOnUse"
       x1="-103.09185"
       y1="62.093681"
       x2="-100.84673"
       y2="20.1875" />
    <linearGradient
       inkscape:collect="always"
       xlink:href="#linearGradient3970"
       id="linearGradient4081"
       gradientUnits="userSpaceOnUse"
       x1="-76.743019"
       y1="39.710289"
       x2="-76.743019"
       y2="16.480215"
       gradientTransform="matrix(0.975638,0,0,0.975638,142.37739,-15.011638)" />
    <linearGradient
       inkscape:collect="always"
       xlink:href="#linearGradient3957"
       id="linearGradient4083"
       gradientUnits="userSpaceOnUse"
       x1="-76.861435"
       y1="55.953369"
       x2="-76.861435"
       y2="13.415054"
       gradientTransform="matrix(0.975638,0,0,0.975638,142.37739,-15.011638)" />
    <linearGradient
       inkscape:collect="always"
       xlink:href="#linearGradient3873"
       id="linearGradient4085"
       gradientUnits="userSpaceOnUse"
       x1="-103.09185"
       y1="62.093681"
       x2="-100.84673"
       y2="20.1875" />
    <linearGradient
       inkscape:collect="always"
       xlink:href="#linearGradient3873"
       id="linearGradient4087"
       gradientUnits="userSpaceOnUse"
       x1="-103.09185"
       y1="62.093681"
       x2="-100.84673"
       y2="20.1875" />
    <linearGradient
       inkscape:collect="always"
       xlink:href="#linearGradient3873"
       id="linearGradient4089"
       gradientUnits="userSpaceOnUse"
       x1="-103.09185"
       y1="62.093681"
       x2="-100.84673"
       y2="20.1875" />
    <linearGradient
       inkscape:collect="always"
       xlink:href="#linearGradient3873"
       id="linearGradient4091"
       gradientUnits="userSpaceOnUse"
       x1="-103.09185"
       y1="62.093681"
       x2="-100.84673"
       y2="20.1875" />
    <linearGradient
       inkscape:collect="always"
       xlink:href="#linearGradient3873"
       id="linearGradient4093"
       gradientUnits="userSpaceOnUse"
       x1="-103.09185"
       y1="62.093681"
       x2="-100.84673"
       y2="20.1875" />
    <linearGradient
       inkscape:collect="always"
       xlink:href="#linearGradient3873"
       id="linearGradient4095"
       gradientUnits="userSpaceOnUse"
       x1="-103.09185"
       y1="62.093681"
       x2="-100.84673"
       y2="20.1875" />
    <linearGradient
       inkscape:collect="always"
       xlink:href="#linearGradient3873"
       id="linearGradient4175"
       gradientUnits="userSpaceOnUse"
       x1="-103.09185"
       y1="62.093681"
       x2="-100.84673"
       y2="20.1875" />
  </defs>
  <path
     style="fill:#be0707;fill-opacity:1;stroke:none"
     d="M 120.39376,3.6772334 122.84049,43.280962 10.902474,35.425682 11.820004,11.532519 120.39376,3.6772334 z"
     id="path3904"
     sodipodi:nodetypes="ccccc" />
  <path
     style="font-size:medium;font-style:normal;font-variant:normal;font-weight:normal;font-stretch:normal;text-indent:0;text-align:start;text-decoration:none;line-height:normal;letter-spacing:normal;word-spacing:normal;text-transform:none;direction:ltr;block-progression:tb;writing-mode:lr-tb;text-anchor:start;color:#000000;fill:#000000;fill-opacity:1;stroke:none;stroke-width:3;marker:none;visibility:visible;display:inline;overflow:visible;enable-background:accumulate;font-family:Bitstream Vera Sans;-inkscape-font-specification:Bitstream Vera Sans"
     d="m 121.66082,2.1067274 -1.36854,0.122048 -108.570596,7.8415646 -1.22599,0.09153 -0.0571,1.312012 -0.9123502,23.89084 -0.057,1.43406 1.3400202,0.0915 111.934936,7.84157 1.56811,0.12205 -0.11405,-1.67816 -2.45196,-39.6044786 -0.0855,-1.464573 z m -2.5375,1.803003 3.44725,38.4560816 -110.250156,-8.3131 2.02167,-19.508245 L 119.12332,3.9097304 z"
     id="path2854"
     sodipodi:nodetypes="cccccccccccccccccc" />
  <path
     style="fill:#ffffff;fill-opacity:1;stroke:#ffffff;stroke-width:2;stroke-miterlimit:4;stroke-opacity:1;stroke-dasharray:none"
     d="m 13.532834,4.3052674 -7.6818002,1.155219 c 0,0 -0.59868,2.974048 -0.59868,5.1015216 0,0.344748 0.0478,0.689142 0.12798,1.024242 0.41448,1.732836 1.69338,3.217186 1.69338,3.217186 l 15.3130002,1.155221 -21.1312502,21.755235 1.99844,2.13337 9.7477002,1.98158 0.19394,0.19394 0.57339,-0.0421 0.0337,0.009 c 0,0 0.009,-0.009 0.009,-0.009 l 40.66881,-2.86698 c 0.13331,-0.5626 0.22156,-1.06467 0.27827,-1.51781 l 7.23545,0.93598 c 1.29797,0.064 2.48361,0.11761 3.54998,0.11806 1.0561,4.4e-4 2.02743,-0.0573 2.86697,-0.11806 0.83317,-0.0602 1.72023,-0.13868 2.73205,-0.28669 1.00259,-0.14667 2.15723,-0.35644 3.37291,-0.59026 l 0,-1.21424 c 1.00478,0.22728 5.22732,0.45115 7.52159,0.55653 l 0,0.12648 c 1.07615,0.0658 2.06466,0.11987 2.95129,0.12648 0.87882,0.007 1.6857,-0.042 2.38633,-0.0927 0.69575,-0.0504 1.43786,-0.11482 2.28514,-0.24453 0.84019,-0.12865 1.80341,-0.3152 2.82481,-0.52281 l 0.35415,-26.7892996 c -0.83944,-0.234415 -1.70023,-0.423197 -2.59713,-0.556529 -0.90524,-0.134518 -1.78407,-0.248341 -2.58027,-0.303561 -0.84501,-0.05854 -1.75167,-0.05918 -2.69833,-0.05059 -0.74211,0.0095 -1.50306,0.0523 -2.28514,0.134916 -0.34104,-0.07053 -0.95743,0.07166 -2.44536,0.303561 -1.5935,-0.03591 -3.53781,0.0272 -4.10652,0.522801 -0.27471,0.02773 -0.5442,0.05649 -0.84322,0.08432 l 0.81793,-0.05903 c -0.0184,0.01793 -0.0358,0.04 -0.0506,0.05903 -0.41466,0.5325036 -1.14229,8.2275586 -1.57684,15.2202316 l -0.059,-16.5862586 c -1.00925,-0.262668 -2.05048,-0.471389 -3.12836,-0.623988 -1.08889,-0.154096 -2.14501,-0.287709 -3.10308,-0.354155 -1.01761,-0.07052 -2.10591,-0.0868 -3.24641,-0.08432 -1.09948,0.0061 -2.23349,0.07567 -3.40665,0.202373 l -6.39109,0.969711 -0.61556,-1.433485 -40.98923,-2.740486 -0.002,-1.06e-4 3.1e-4,0 z m 83.01565,5.615888 c -1.26305,0 -2.36891,0.2793366 -2.30201,1.2817036 0.15292,2.291126 0.4599,16.698333 -0.15179,18.989463 -0.61167,2.29112 -2.14248,4.41662 -0.91911,4.90758 l 5.64118,0.84322 c 0.9419,0.0964 1.767466,0.15133 2.445356,0.13492 0.70759,0.0133 1.34511,-0.0245 1.93943,-0.0675 0.55586,-0.0403 1.16795,-0.098 1.85509,-0.21081 0.71518,-0.083 1.50433,-0.24566 2.37791,-0.46378 l 0.1602,-5.77609 c 0.0994,0.0277 0.37807,0.0261 0.77578,0.0421 0.39588,0.016 0.86889,0.0386 1.42505,0.0169 1.35928,-0.0532 2.67107,-0.2622 3.93786,-0.61556 1.28122,-0.37992 2.39747,-0.95238 3.38978,-1.70331 0.98245,-0.7435 1.76727,-1.71321 2.36946,-2.88384 0.62859,-1.16546 0.98872,-2.600321 1.05404,-4.300451 0.0723,-1.885179 -0.19041,-3.409336 -0.79264,-4.612449 -0.57733,-1.24399 -1.3928,-2.221662 -2.4285,-2.959725 -1.04896,-0.779363 -2.25271,-1.349621 -3.6343,-1.694885 -1.40366,-0.382913 -2.85779,-0.651721 -4.38477,-0.758903 -1.5195,-0.1066086 -3.12267,-0.1571436 -4.84012,-0.1433486 -1.71304,-0.01712 -3.45514,0.04354 -5.160556,0.1686446 l 0,0.109615 c -0.69778,-0.135612 -1.76061,-0.3035606 -2.75734,-0.3035606 l 0,6.6e-5 z m -44.88495,3.7523576 c 0.23664,4.77461 0.61863,11.984039 1.01188,17.176519 l -1.44192,0.0506 c -2.28634,-0.25433 -6.58262,-0.7365 -12.66526,-1.40819 l 13.0953,-15.818919 0,-10e-6 z m 56.276926,3.077776 c 1.05892,1.193147 1.48341,2.853792 1.44192,3.786087 -0.0469,1.0522 -0.61026,2.098916 -1.29857,3.052476 -0.12168,-0.0218 -0.23494,-0.0415 -0.32886,-0.059 l 0.18551,-6.779534 0,-2.9e-5 z"
     id="path4147"
     sodipodi:nodetypes="ccssccccccccccccsssccccsssccssccccccsccsscccccccccccscccsscscscccsccccccccccscccccccc" />
  <image
     width="128"
     height="48"
     id="image12"
     x="508.67593"
     y="-77.925568"
     xlink:href="/home/amqs/proyectos/ziip/icon.png" />
  <g
     id="g3889"
     style="fill:url(#linearGradient4095);fill-opacity:1"
     transform="matrix(0.91235808,0,0,0.97638155,141.19098,-15.040974)">
    <path
       sodipodi:nodetypes="ccsscsc"
       id="path3867"
       d="m -72.240124,25.372583 7.877693,-0.502831 c 0,0 -6.201588,-0.502832 -7.03964,0.502831 -0.838053,1.005663 -2.849379,26.98529 -1.843716,27.320511 1.005663,0.335221 9.560917,0.763084 9.560917,0.763084 0,0 0.663324,-28.083595 -0.0071,-28.754037 -0.670442,-0.670442 -0.838053,0 -8.548136,0.670442 z"
       style="fill:url(#linearGradient4085);fill-opacity:1;stroke:none" />
    <path
       id="path3865"
       d="m -86.606457,23.164712 -11.780904,1.202208 c 0,0 1.340884,27.990953 2.178936,28.996616 0.838053,1.005663 10.867438,2.040261 11.370269,1.034598 0.502832,-1.005663 0.102659,-31.08028 0.102659,-31.08028 l -1.87096,-0.153142 z"
       style="fill:url(#linearGradient4087);fill-opacity:1;stroke:none"
       sodipodi:nodetypes="ccsscc" />
    <path
       id="path3860"
       d="M -139.60307,19.88678 -148.34375,21 c 0,0 -0.65625,3.039814 -0.65625,5.21875 0,2.178937 2,4.34375 2,4.34375 l 16.78125,1.1875 -23.15625,22.28125 2.1875,2.1875 11.5625,2.1875 c 0,0 2.02517,-1.534481 4.84375,-3.71875 10.88119,-1.337807 36.0625,-4.34375 36.0625,-4.34375 l 3,-3 c 0,0 -16.51625,-1.718534 -26.625,-2.75 7.41337,-6.357126 14.17424,-12.964008 13.0625,-15.1875 -2.34655,-4.693094 -30.32182,-9.51947 -30.32182,-9.51947 z"
       style="fill:url(#linearGradient4089);fill-opacity:1;stroke:none"
       sodipodi:nodetypes="ccscccccccccsc" />
    <path
       sodipodi:nodetypes="csssssccc"
       id="path3871"
       d="m -38.718025,31.23895 c 2.849379,0.670442 3.923159,3.765482 3.855042,5.195926 -0.167611,3.51982 -6.369199,7.039641 -3.687431,7.039641 2.681768,0 10.391851,0.335221 11.565124,-3.687431 1.173274,-4.022652 4.190262,-4.357873 0.335221,-7.207252 -3.855041,-2.849378 -10.05663,-3.687431 -10.727072,-3.687431 -0.670442,0 -1.005663,3.016989 -1.005663,3.016989 l 0.502832,-0.335221 -0.838053,-0.335221 z"
       style="fill:url(#linearGradient4091);fill-opacity:1;stroke:none" />
    <path
       sodipodi:nodetypes="cssscc"
       id="path3869"
       d="m -45.087224,26.043025 c 0,0 -6.536809,-1.508494 -6.369198,0.838052 0.16761,2.346547 0.502831,17.096271 -0.167611,19.442818 -0.670442,2.346547 -2.346547,4.525483 -1.005663,5.028315 1.340884,0.502831 7.282838,1.041008 7.282838,1.041008 l 0.259634,-26.350193 z"
       style="fill:url(#linearGradient4093);fill-opacity:1;stroke:none" />
  </g>
  <path
     id="path2861"
     d="m 109.30322,10.090591 c -1.51951,-0.1066086 -3.1229,-0.1575146 -4.84036,-0.1437186 -1.71303,-0.01712 -3.45205,0.04189 -5.157456,0.1669886 0,0 -0.49027,25.832021 -0.49027,25.832021 0.94188,0.0964 1.766646,0.14682 2.444546,0.1304 0.70758,0.0133 1.34354,-0.0216 1.93786,-0.0646 0.55588,-0.0403 1.17431,-0.0959 1.86144,-0.20869 0.71518,-0.083 1.50453,-0.2453 2.37809,-0.46341 0,0 0.15544,-5.78003 0.15544,-5.78003 0.0994,0.0278 0.38038,0.0278 0.77807,0.0438 0.3959,0.016 0.86719,0.0396 1.42335,0.0178 1.35929,-0.0532 2.67291,-0.26539 3.9397,-0.61875 1.28122,-0.37992 2.39953,-0.95274 3.39184,-1.70367 0.98246,-0.74349 1.76293,-1.71218 2.3651,-2.88282 0.62859,-1.16546 0.98811,-2.598371 1.05341,-4.298501 0.0723,-1.88518 -0.18554,-3.407451 -0.78777,-4.610563 -0.57733,-1.243991 -1.39234,-2.223447 -2.42803,-2.96151 -1.04896,-0.779363 -2.2565,-1.355068 -3.63808,-1.700333 -1.40367,-0.382913 -2.8599,-0.647198 -4.38688,-0.754381 0,0 0,0 0,0 M 68.186454,7.3929874 c -1.01761,-0.07052 -2.11015,-0.08498 -3.25065,-0.0825 -1.09948,0.0061 -2.2329,0.07425 -3.40604,0.200947 0,0 0.4628,31.0240976 0.4628,31.0240976 1.29797,0.064 2.48573,0.10986 3.5521,0.11031 1.05609,4.3e-4 2.02327,-0.0564 2.86283,-0.11713 0.83316,-0.0602 1.7205,-0.13741 2.73232,-0.28541 1.00259,-0.14667 2.15988,-0.35465 3.37557,-0.58846 0,0 -0.0988,-29.2830556 -0.0988,-29.2830556 -1.00926,-0.262668 -2.05022,-0.472384 -3.1281,-0.624981 -1.08889,-0.154096 -2.14402,-0.287379 -3.1021,-0.353824 0,0 0,0 0,0 m 19.47407,1.349971 c -0.84501,-0.05854 -1.75238,-0.06566 -2.69903,-0.05706 -0.91185,0.01169 -1.85197,0.0798 -2.82503,0.201294 0,0 -0.1003,28.2387556 -0.1003,28.2387556 1.07616,0.0658 2.06213,0.11468 2.94875,0.12128 0.87883,0.007 1.68518,-0.0397 2.38581,-0.0904 0.69575,-0.0504 1.43744,-0.11583 2.28472,-0.24554 0.84019,-0.12865 1.81144,-0.31272 2.83284,-0.52033 0,0 0.35271,-26.7890406 0.35271,-26.7890406 -0.83944,-0.234415 -1.70544,-0.420171 -2.60233,-0.553502 -0.90523,-0.134519 -1.78189,-0.250148 -2.57809,-0.305369 0,0 0,0 0,0 m -74.12976,-4.436011 c -0.33389,1.027237 -0.56176,1.915901 -0.67314,2.707817 -0.0353,0.746019 -0.007,1.471395 0.0375,2.219898 0.0438,0.747565 0.10403,1.5467406 0.2324,2.3946026 0.20372,0.79952 0.53798,1.770188 0.99177,2.867563 0,0 18.66121,0.554416 18.66121,0.554416 0,0 -21.5362,24.977666 -21.5362,24.977666 0,0 1.94925,1.99414 1.94925,1.99414 0,0 41.28835,-2.91204 41.28835,-2.91204 0.20405,-0.86121 0.30136,-1.59042 0.34397,-2.19909 0.0972,-0.6527 0.16881,-1.25164 0.15592,-1.85832 -0.025,-1.17484 -0.25367,-2.60687 -0.68174,-4.26433 0,0 -17.30614,0.60358 -17.30614,0.60358 0,0 18.433,-22.2584386 18.433,-22.2584386 0,0 -0.90832,-2.091042 -0.90832,-2.091042 0,0 -40.98791,-2.736422 -40.98791,-2.736422 0,0 0,0 0,0 M 108.73696,16.326608 c 0.26738,0.0094 0.45333,0.01596 0.58647,0.02063 1.09065,0.0384 1.96426,0.40174 2.65741,1.0571 0.71973,0.618832 1.08061,1.475215 1.04509,2.600135 -0.0415,1.309547 -0.45749,2.249479 -1.21047,2.810769 -0.72525,0.53397 -1.66186,0.81439 -2.81344,0.82081 -0.16574,9.4e-4 -0.35672,0.002 -0.62308,0.003 -0.23287,-0.0305 -0.45753,-0.0777 -0.62441,-0.10875 0,0 0.19245,-7.156072 0.19245,-7.156072 0.27057,-0.02291 0.55536,-0.05634 0.78998,-0.0481 0,0 0,0 0,0"
     style="font-size:40px;font-style:normal;font-variant:normal;font-weight:normal;font-stretch:normal;text-align:start;line-height:125%;writing-mode:lr-tb;text-anchor:start;fill:#000000;fill-opacity:1;stroke:none;font-family:Aller Display;-inkscape-font-specification:Aller Display" />
  <path
     style="fill:url(#linearGradient4083);fill-opacity:1;stroke:none"
     d="m 16.112404,6.2868624 c 0,0 -1.6977,5.5587316 -0.62725,6.3769906 1.07045,0.818259 27.22818,-0.152559 27.22818,-0.152559 0,0 -27.674,25.358208 -27.82691,26.667418 -0.15292,1.30922 35.61567,-0.97362 36.38028,-1.46458 0.7646,-0.49094 4.14703,-3.92218 1.85322,-4.57678 -2.29381,-0.65461 -24.33299,1.45901 -23.72131,0.64075 0.61168,-0.81826 24.9421,-23.050389 24.17749,-24.1959526 -0.76461,-1.145562 -0.76735,-1.145597 -7.95463,-1.800203 -7.18727,-0.654608 -29.81492,-1.495084 -29.50907,-1.495084 z m 51.09204,1.891738 c -1.40227,-0.002 -2.84466,0.182726 -3.99156,0.244096 0.30584,0.327304 0.30845,25.0531256 1.22598,28.1624956 0.91752,3.10939 5.79817,0.65461 7.32737,0 1.52922,-0.6546 1.22079,-21.774479 0.45619,-25.53847 -0.47788,-2.3524956 -2.68085,-2.8649246 -5.01798,-2.8681216 z m 21.81106,2.4409536 c -1.05132,-0.04092 -2.56345,0.337015 -4.70434,0.09153 0.15292,0.16365 0.28769,4.413202 -0.17107,8.177195 -0.45876,3.763983 -0.75678,17.200403 1.99579,16.873093 2.75257,-0.3273 3.67277,0.48816 4.5903,-1.31201 0.91752,-1.80016 0.60132,-17.685894 0.14255,-21.449885 -0.22938,-1.881995 -0.80189,-2.339016 -1.85323,-2.37993 z m 13.514306,0.152559 c -1.20425,0.06136 -2.17721,0.601945 -2.0243,2.074813 0.30585,2.945731 0.61947,14.238006 0.31363,16.201826 -0.30584,1.96382 -0.14256,4.58788 -0.14256,4.42423 1.83505,1.80017 4.42443,2.42983 5.18904,0.79331 l 1.08342,-5.8888 c 0,0 0.91242,0.33563 4.27668,0.33563 3.36426,0 6.2725,-2.28013 7.95463,-5.55316 1.68212,-3.273043 0.30577,-7.705701 -3.36433,-10.160477 -2.75257,-1.841082 -8.42742,-2.204876 -11.80363,-2.135834 -0.0756,0.0015 -0.12624,-0.0021 -0.19958,0 -0.43392,-0.06969 -0.87275,-0.112443 -1.283,-0.09153 z m 7.61249,4.607302 c 0.87373,0.03244 1.76382,0.241331 2.45196,0.732286 1.83505,1.309215 4.12111,5.228666 1.36854,6.865191 -2.62584,1.56115 -6.79588,1.78317 -7.18483,1.80019 0.13323,-3.090428 0.17003,-6.322583 0.0571,-8.848453 0.40707,-0.166662 1.35919,-0.439418 2.45196,-0.518702 0.28194,-0.02045 0.5641,-0.04133 0.85533,-0.03051 z"
     id="path3838" />
  <path
     style="fill:url(#linearGradient4081);fill-opacity:1;stroke:none"
     d="m 16.123744,6.2999554 c 0,0 -1.7107,5.5538756 -0.64026,6.3721356 1.07045,0.818259 27.2264,-0.152444 27.2264,-0.152444 0,0 -5.47021,5.048458 -11.43326,10.610065 2.88002,0.24866 5.65741,0.54383 8.41488,0.85368 6.81658,-6.471608 14.30694,-13.739531 13.87235,-14.3906586 -0.7646,-1.145562 -0.77027,-1.144225 -7.95754,-1.798832 -7.18728,-0.654607 -29.78841,-1.493946 -29.48257,-1.493946 z m 51.06856,1.890299 c -1.40227,-0.002 -2.84712,0.182539 -3.99403,0.243909 0.19245,0.205946 0.26252,10.0479656 0.51832,18.1102786 1.99378,0.14862 4.00775,0.28122 6.06724,0.36586 1.02916,0.0422 2.03397,0.0692 3.04887,0.0914 0.10019,-6.349844 -0.18177,-13.838591 -0.60977,-15.945577 -0.47789,-2.3524936 -2.69352,-2.8627396 -5.03063,-2.8659356 z m 21.8299,2.4390946 c -1.05134,-0.04092 -2.58487,0.336945 -4.72575,0.09146 0.15292,0.16365 0.30632,4.406975 -0.15244,8.170968 -0.18955,1.555136 -0.34355,4.753095 -0.27441,7.957535 2.56237,-0.11772 5.05493,-0.26768 7.43924,-0.48782 0.033,-5.167701 -0.16543,-11.209235 -0.42684,-13.354032 -0.22938,-1.881994 -0.80848,-2.337204 -1.8598,-2.378117 z m 13.506476,0.152443 c -1.20425,0.06137 -2.16518,0.600364 -2.01225,2.073231 0.21428,2.063912 0.42065,8.138122 0.42684,12.317429 2.0831,-0.33195 4.03995,-0.71593 5.85383,-1.09759 0.10941,-2.871854 0.13493,-5.805801 0.0305,-8.140482 0.40707,-0.166661 1.37681,-0.439022 2.46958,-0.518307 0.28195,-0.02045 0.56244,-0.0413 0.85368,-0.03048 0.87373,0.03244 1.75096,0.240774 2.4391,0.73173 1.51582,1.081459 3.34098,3.937722 2.37812,5.823344 1.95697,-0.649125 3.48687,-1.287096 4.51232,-1.890305 0.10699,-0.06291 0.25892,-0.120646 0.39636,-0.182932 -0.0962,-2.547182 -1.52183,-5.165625 -4.055,-6.859955 -2.75257,-1.841082 -8.42291,-2.203248 -11.79912,-2.134207 -0.0756,0.0015 -0.14009,-0.0021 -0.21342,0 -0.43391,-0.06969 -0.87028,-0.112374 -1.28053,-0.09147 z"
     id="path3965" />
</svg>
